<svg width="69" height="67" viewBox="0 0 69 67" fill="none" xmlns="http://www.w3.org/2000/svg">
<rect x="5" y="16" width="59" height="44" fill="black"/>
<rect y="12" width="69" height="4" rx="2" fill="black"/>
<rect y="56" width="69" height="4" rx="2" fill="black"/>
<path d="M22.885 54.495C21.8583 54.495 21.1067 54.33 20.63 54C20.1533 53.67 19.8417 53.2117 19.695 52.625C19.585 52.0383 19.53 51.415 19.53 50.755V19.735C19.53 19.075 19.585 18.47 19.695 17.92C19.8417 17.37 20.1533 16.93 20.63 16.6C21.1433 16.2333 21.9133 16.05 22.94 16.05H37.35C39.4767 16.05 41.3467 16.545 42.96 17.535C44.61 18.525 45.8933 19.845 46.81 21.495C47.7633 23.145 48.24 24.96 48.24 26.94C48.24 27.7833 48.13 28.6267 47.91 29.47C47.7267 30.3133 47.4333 31.1017 47.03 31.835C46.6267 32.5683 46.1133 33.2283 45.49 33.815C46.3333 34.475 47.0483 35.3 47.635 36.29C48.2583 37.2433 48.7167 38.27 49.01 39.37C49.34 40.47 49.505 41.6067 49.505 42.78C49.4683 44.43 49.1567 45.97 48.57 47.4C47.9833 48.83 47.1583 50.0767 46.095 51.14C45.0317 52.2033 43.785 53.0283 42.355 53.615C40.9617 54.2017 39.4767 54.495 37.9 54.495H22.885ZM26.405 47.73H37.35C38.34 47.73 39.2383 47.5467 40.045 47.18C40.8517 46.8133 41.475 46.2267 41.915 45.42C42.3917 44.5767 42.63 43.495 42.63 42.175C42.63 41.1483 42.5017 40.3233 42.245 39.7C41.9883 39.0767 41.64 38.6 41.2 38.27C40.76 37.9033 40.265 37.6467 39.715 37.5C39.165 37.3533 38.615 37.28 38.065 37.28C37.5517 37.2433 37.0567 37.225 36.58 37.225H34.215C33.225 37.225 32.4917 37.005 32.015 36.565C31.575 36.0883 31.355 35.3 31.355 34.2C31.355 33.1367 31.5933 32.385 32.07 31.945C32.5833 31.505 33.3533 31.285 34.38 31.285H36.69C37.1667 31.285 37.6617 31.2667 38.175 31.23C38.725 31.1933 39.2383 31.065 39.715 30.845C40.2283 30.625 40.6317 30.2583 40.925 29.745C41.255 29.195 41.42 28.425 41.42 27.435C41.42 25.8217 40.9983 24.6667 40.155 23.97C39.3483 23.2367 37.9367 22.87 35.92 22.87H26.405V47.73Z" fill="white"/>
</svg>
